<?xml version="1.0" encoding="UTF-8"?>
<!DOCTYPE svg  PUBLIC '-//W3C//DTD SVG 1.1//EN'  'http://www.w3.org/Graphics/SVG/1.1/DTD/svg11.dtd'>
<svg clip-rule="evenodd" fill-rule="evenodd" stroke-linejoin="round" stroke-miterlimit="2" version="1.1" viewBox="0 0 540 540" xml:space="preserve" xmlns="http://www.w3.org/2000/svg"><path d="m122.98 282.45c11.423-37.006 72.939-65.307 147.02-65.307s135.59 28.301 147.02 65.307c-11.423 37.006-72.939 65.307-147.02 65.307s-135.59-28.301-147.02-65.307z" fill="url(#b)"/><path d="m122.98 282.45c-1.251-4.053-1.901-8.211-1.901-12.447-0-42.914 66.727-77.754 148.92-77.754s148.92 34.84 148.92 77.754c0 4.236-0.65 8.394-1.901 12.447-11.423-37.006-72.939-65.307-147.02-65.307s-135.59 28.301-147.02 65.307z" fill="url(#a)"/><path d="m270 154.3c122.3 0 206.27 51.843 206.27 115.7s-77.269 134.9-206.27 133.89c-137.61-1.078-210.58-70.034-210.58-133.89s88.279-115.7 210.58-115.7zm0 37.944c-82.189 0-148.92 34.84-148.92 77.754s66.727 77.754 148.92 77.754 148.92-34.84 148.92-77.754-66.727-77.754-148.92-77.754z" fill="url(#c)"/><defs><radialGradient id="b" cx="0" cy="0" r="1" gradientTransform="matrix(-195.75 -160.95 160.95 -195.75 358.08 353.2)" gradientUnits="userSpaceOnUse"><stop stop-color="#f6b" offset="0"/><stop stop-color="#8d004e" offset="1"/></radialGradient><radialGradient id="a" cx="0" cy="0" r="1" gradientTransform="matrix(-208.21 -109.63 109.63 -208.21 401.7 321.12)" gradientUnits="userSpaceOnUse"><stop stop-color="#f6b" offset="0"/><stop stop-color="#9b0056" offset="1"/></radialGradient><linearGradient id="c" x2="1" gradientTransform="matrix(313.85 162.49 -162.49 313.85 122.98 185.27)" gradientUnits="userSpaceOnUse"><stop stop-color="#ff5ebb" offset="0"/><stop stop-color="#eb0082" offset="1"/></linearGradient></defs></svg>
